<svg viewBox="0 0 600 900" preserveAspectRatio="xMidYMid slice" role="img" aria-label="A cluster seen from above at night: one machine lit warm and cabled to the world, one dark with a frayed thread to it, a third far at the edge glowing faintly; twelve lantern-windows above, eleven lit, one dark; crates on the ground, most nailed shut.">
<defs>
 <linearGradient id="a1sky" x1="0" y1="0" x2="0.3" y2="1"><stop offset="0" stop-color="#11162a"/><stop offset=".55" stop-color="#1a1d2e"/><stop offset="1" stop-color="#221c22"/></linearGradient>
 <radialGradient id="a1halo" cx=".5" cy=".5" r=".5"><stop offset="0" stop-color="#f4b760" stop-opacity=".55"/><stop offset=".45" stop-color="#d9823a" stop-opacity=".18"/><stop offset="1" stop-color="#d9823a" stop-opacity="0"/></radialGradient>
 <radialGradient id="a1far" cx=".5" cy=".5" r=".5"><stop offset="0" stop-color="#a9c2e6" stop-opacity=".45"/><stop offset="1" stop-color="#a9c2e6" stop-opacity="0"/></radialGradient>
 <linearGradient id="a1body" x1="0" y1="0" x2="1" y2="1"><stop offset="0" stop-color="#ffd79a"/><stop offset=".5" stop-color="#e59a4c"/><stop offset="1" stop-color="#9c4f1e"/></linearGradient>
 <radialGradient id="a1win" cx=".5" cy=".45" r=".6"><stop offset="0" stop-color="#fff0c8"/><stop offset=".6" stop-color="#f3b45a"/><stop offset="1" stop-color="#b8612a"/></radialGradient>
 <filter id="a1blur" x="-50%" y="-50%" width="200%" height="200%"><feGaussianBlur stdDeviation="9"/></filter>
 <filter id="a1soft"><feGaussianBlur stdDeviation="2.2"/></filter>
 <filter id="a1rough"><feTurbulence type="fractalNoise" baseFrequency=".035" numOctaves="3" seed="4"/><feDisplacementMap in="SourceGraphic" scale="14"/></filter>
 <filter id="a1grain"><feTurbulence type="fractalNoise" baseFrequency=".85" numOctaves="2" stitchTiles="stitch"/><feColorMatrix type="saturate" values="0"/><feComponentTransfer><feFuncA type="table" tableValues="0 .10"/></feComponentTransfer></filter>
</defs>
<rect width="600" height="900" fill="url(#a1sky)"/>
<g filter="url(#a1rough)" opacity=".9">
 <path d="M-20,420 C80,380 190,400 260,450 C330,500 420,470 520,500 C580,520 640,560 640,600 L640,920 L-20,920 Z" fill="#1f2334"/>
 <path d="M-20,640 C120,600 260,650 360,700 C450,745 560,720 640,760 L640,920 L-20,920 Z" fill="#262636"/>
 <path d="M380,120 C450,100 560,130 640,110 L640,300 C560,290 470,260 400,230 C340,200 330,140 380,120 Z" fill="#1c2238"/>
</g>
<g stroke-linecap="round" fill="none">
 <path d="M230,560 C170,610 90,600 -20,660" stroke="#e8a257" stroke-width="7" opacity=".25" filter="url(#a1soft)"/>
 <path d="M230,560 C170,610 90,600 -20,660" stroke="#f1b76c" stroke-width="2.6" opacity=".85"/>
 <path d="M200,540 C130,500 60,520 -20,470" stroke="#f1b76c" stroke-width="2.2" opacity=".7"/>
 <path d="M250,600 C240,700 180,780 150,920" stroke="#e8a257" stroke-width="7" opacity=".22" filter="url(#a1soft)"/>
 <path d="M250,600 C240,700 180,780 150,920" stroke="#f1b76c" stroke-width="2.4" opacity=".8"/>
</g>
<ellipse cx="235" cy="560" rx="210" ry="170" fill="url(#a1halo)"/>
<g>
 <path d="M160,530 Q162,505 190,500 L292,504 Q316,506 314,530 L312,600 Q310,622 286,622 L186,620 Q160,618 160,596 Z" fill="url(#a1body)"/>
 <path d="M160,530 Q162,505 190,500 L292,504 Q316,506 314,530 L312,546 L162,542 Z" fill="#ffe3b0" opacity=".55"/>
 <g stroke="#7a3a14" stroke-width="2" stroke-linecap="round" opacity=".55"><path d="M186,566 H286"/><path d="M186,580 H286"/><path d="M186,594 H250"/></g>
 <circle cx="292" cy="596" r="4" fill="#fff4d6"/>
</g>
<g>
 <path d="M150,288 C230,280 300,282 330,290" stroke="#6b5a48" stroke-width="3" fill="none" stroke-linecap="round"/>
 <g stroke="#6b5a48" stroke-width="1" opacity=".7">
  <path d="M176,289 V300"/><path d="M212,286 V300"/><path d="M248,285 V300"/><path d="M284,286 V300"/>
 </g>
 <g id="a1lanterns">
  <g filter="url(#a1soft)" opacity=".75" fill="#f3b45a">
   <circle cx="176" cy="315" r="16"/><circle cx="212" cy="315" r="16"/><circle cx="248" cy="315" r="16"/><circle cx="284" cy="315" r="16"/>
   <circle cx="176" cy="355" r="16"/><circle cx="212" cy="355" r="16"/><circle cx="248" cy="355" r="16"/><circle cx="284" cy="355" r="16"/>
   <circle cx="176" cy="395" r="16"/><circle cx="212" cy="395" r="16"/><circle cx="248" cy="395" r="16"/>
  </g>
  <g fill="url(#a1win)" stroke="#5a3a1a" stroke-width="1.4">
   <rect x="165" y="302" width="22" height="26" rx="6"/><rect x="201" y="302" width="22" height="26" rx="6"/><rect x="237" y="302" width="22" height="26" rx="6"/><rect x="273" y="302" width="22" height="26" rx="6"/>
   <rect x="165" y="342" width="22" height="26" rx="6"/><rect x="201" y="342" width="22" height="26" rx="6"/><rect x="237" y="342" width="22" height="26" rx="6"/><rect x="273" y="342" width="22" height="26" rx="6"/>
   <rect x="165" y="382" width="22" height="26" rx="6"/><rect x="201" y="382" width="22" height="26" rx="6"/><rect x="237" y="382" width="22" height="26" rx="6"/>
  </g>
  <rect x="273" y="382" width="22" height="26" rx="6" fill="#1b1d2b" stroke="#6a6a80" stroke-width="1.4"/>
  <path d="M277,388 L291,402" stroke="#3a3c50" stroke-width="1"/>
 </g>
</g>
<g>
 <path d="M400,648 Q402,628 424,626 L500,628 Q520,630 518,650 L516,700 Q514,716 496,716 L420,714 Q400,712 400,696 Z" fill="#2a2c3a" stroke="#454860" stroke-width="1.5"/>
 <path d="M400,648 Q402,628 424,626 L500,628 Q520,630 518,650 L517,660 L401,658 Z" fill="#3a3d52" opacity=".7"/>
 <path d="M402,670 C370,655 345,640 330,628 C320,620 318,612 314,606" stroke="#e9c48c" stroke-width="1.1" fill="none" stroke-dasharray="14 5 6 7 3 9" opacity=".7"/>
 <g stroke="#e9c48c" stroke-width=".8" fill="none" opacity=".55" stroke-linecap="round">
  <path d="M402,670 C396,666 392,672 386,668"/><path d="M402,670 C395,676 390,674 384,680"/><path d="M402,670 C398,662 392,660 388,654"/>
 </g>
</g>
<ellipse cx="545" cy="175" rx="70" ry="55" fill="url(#a1far)"/>
<path d="M522,168 Q523,158 534,158 L560,159 Q570,160 569,170 L568,188 Q567,196 558,196 L532,195 Q522,195 522,186 Z" fill="#3b4a66" stroke="#9fb4d6" stroke-width="1.2"/>
<circle cx="560" cy="188" r="2.2" fill="#dce8ff"/>
<g stroke-linejoin="round">
 <g transform="translate(70,720) rotate(-6)"><rect width="58" height="42" rx="3" fill="#5c4630" stroke="#2a1e12" stroke-width="1.5"/><path d="M0,14 H58 M0,28 H58" stroke="#3e2e1e" stroke-width="1.2"/><path d="M4,4 L54,38 M54,4 L4,38" stroke="#7a5d3e" stroke-width="3"/></g>
 <g transform="translate(145,745) rotate(4)"><rect width="36" height="28" rx="3" fill="#6b5238" stroke="#2a1e12" stroke-width="1.5"/><path d="M3,3 L33,25 M33,3 L3,25" stroke="#8a6a46" stroke-width="2.5"/></g>
 <g transform="translate(330,770) rotate(-3)"><rect width="70" height="46" rx="3" fill="#554029" stroke="#2a1e12" stroke-width="1.5"/><path d="M0,15 H70 M0,31 H70" stroke="#3e2e1e" stroke-width="1.2"/><path d="M5,4 L65,42 M65,4 L5,42" stroke="#7a5d3e" stroke-width="3"/></g>
 <g transform="translate(430,760) rotate(8)"><rect width="30" height="24" rx="3" fill="#634b33" stroke="#2a1e12" stroke-width="1.5"/><path d="M3,3 L27,21 M27,3 L3,21" stroke="#8a6a46" stroke-width="2.2"/></g>
 <g transform="translate(250,700) rotate(-10)"><ellipse cx="20" cy="4" rx="26" ry="10" fill="#f4b760" opacity=".35" filter="url(#a1soft)"/><rect width="40" height="30" rx="3" fill="#7a5a3a" stroke="#2a1e12" stroke-width="1.5"/><path d="M-4,-2 L20,-12 L44,-2" fill="#8c6a44" stroke="#2a1e12" stroke-width="1.2"/><rect x="4" y="4" width="32" height="10" fill="#f6c77e" opacity=".7"/></g>
 <g transform="translate(500,800) rotate(-4)"><rect width="50" height="34" rx="3" fill="#584330" stroke="#2a1e12" stroke-width="1.5"/><path d="M4,4 L46,30 M46,4 L4,30" stroke="#7a5d3e" stroke-width="2.6"/></g>
 <g transform="translate(20,810) rotate(5)"><rect width="44" height="30" rx="3" fill="#604832" stroke="#2a1e12" stroke-width="1.5"/><path d="M4,4 L40,26 M40,4 L4,26" stroke="#7a5d3e" stroke-width="2.4"/></g>
</g>
<g font-family="Fraunces, Georgia, serif" fill="#f5e7cb">
 <text x="40" y="110" font-size="46" font-weight="600" letter-spacing="-.5">State of</text>
 <text x="40" y="160" font-size="46" font-weight="600" letter-spacing="-.5">the World</text>
 <text x="42" y="196" font-size="16" font-style="italic" fill="#d8c29a">Revision 2 · Psyche High 1b8ac0</text>
</g>
<rect width="600" height="900" filter="url(#a1grain)"/>
</svg>
